<svg xmlns="http://www.w3.org/2000/svg" width="748.783" height="92.277" fill="#000"><title>HalloweenCostumes.com</title><path d="M61.564 78.219a19.9 19.9 0 0 1 3.555 2.407q0 .292-3.845.292-4.717 0-18.861-.292-4.209-.072-4.208-.365 0-.436 2.539-1.677 4.714-2.334 5.658-2.626a1.089 1.089 0 0 0 .581-.949V56.336c0-.291-.122-.437-.363-.437q-5.078-.729-17.12 0c-.29 0-.435.134-.435.4s-.049 3.83-.145 10.686q-.147 7.3-.145 12.036a.541.541 0 0 0 .072.219q1.307.73 5.659 3.137 2.829 1.167 2.829 1.824 0 .8-3.41.948-7.11.509-20.82 1.021-2.031 0-2.031-.8 0-.657 1.813-1.532 2.831-1.312 8.488-4.085.363-.219.363-1.021-.8-27.718-1.668-52.52a1.822 1.822 0 0 0-.218-.8q-2.032-.948-6.457-3.21-2.829-1.458-2.829-2.042 0-.438 3.192-.511l20.1-.583q3.553-.073 3.554.292 0 .291-2.321 2.115-1.6 1.094-5 3.574a1.338 1.338 0 0 0-.436.948q-.581 16.925-.58 25.9 0 .292.507.292 5.369.147 10.519.146.29 0 6.167-.219.435 0 .435-.292 0-3.939-.218-15.391-.146-9.846-.145-15.464 0-1.02-.29-1.24-1.669-.657-6.819-3.282-1.669-.948-1.669-1.532 0-.876 2.394-.876 1.377 0 19.587.73 4.136.147 4.135.875 0 .293-3.047 2.042a44.829 44.829 0 0 0-6.094 3.283 1.062 1.062 0 0 0-.507.875l1.886 51.79a1.3 1.3 0 0 0 .29.949q1.512 1.083 5.358 3.638Z"/><path d="m99.503 84.419-9.865.73c-.678.047-1.21.072-1.6.072q-1.234 0-1.379-.437c0-.049-.025-.558-.072-1.532l-.073-2.48a17.308 17.308 0 0 1-8.27 1.97 17.056 17.056 0 0 1-11.825-4.523 10.07 10.07 0 0 1-3.336-7.878q0-3.792 4.062-7.878a15.941 15.941 0 0 1 5.441-3.027 19.474 19.474 0 0 1 6.747-1.495 15.661 15.661 0 0 1 7.254 1.386l.145.072q-.218-5.834-.436-11.6-.507-8.022-2.321-9.483a4.99 4.99 0 0 0-3.046-1.094q-3.411 0-6.82 4.231a57.639 57.639 0 0 0-7.036 12.328q-.728 1.532-1.234 1.532c-.435 0-.652-.485-.652-1.459l.507-20.06q.072-4.3.8-4.3.507 0 1.886 3.794l2.539 7c.048 0 .1-.048.145-.146a17.133 17.133 0 0 1 13.711-6.638 8.939 8.939 0 0 1 6.311 2.7q4.207 4.014 4.208 14.151 0 2.043-.943 24.437 0 .73-.145 2.188c-.1.973-.145 1.678-.145 2.115V80.7a.86.86 0 0 0 .58.584 39.386 39.386 0 0 1 4.715 2.042q1.16.585 1.161.876c.001.096-.337.17-1.014.217ZM86.736 66.038a1.884 1.884 0 0 0-.508-1.387 7.807 7.807 0 0 0-6.6-3.5 7.611 7.611 0 0 0-5.731 2.334q-1.959 2.043-1.959 7.148 0 4.379 2.466 6.712a7.635 7.635 0 0 0 5.659 2.188 7.008 7.008 0 0 0 4.389-1.787 5.158 5.158 0 0 0 2.212-4.048Z"/><path d="M122.136 82.744q0 .509-3.192.728l-16.539.947q-3.918.221-3.918-.364 0-.51 3.192-2.113l5.223-2.624a1.5 1.5 0 0 0 .871-1.6l-2.467-53.92a1.566 1.566 0 0 0-.508-1.239q-.87-.437-7.108-3.133-2.178-.946-2.177-1.457c0-.193.339-.364 1.015-.51q.728-.072 1.524-.218.365-.072 14.726-.511 1.377-.072 1.741.583a2.982 2.982 0 0 1 .218 1.384l-.653 58.658c0 .339-.049.461-.145.363q.144.074 4.5 2.551 3.697 2.038 3.697 2.475Z"/><path d="M144.552 82.744q0 .509-3.192.728l-16.54.947q-3.916.221-3.918-.364 0-.51 3.192-2.113l5.223-2.624a1.5 1.5 0 0 0 .871-1.6l-2.467-53.92a1.563 1.563 0 0 0-.508-1.239q-.87-.437-7.108-3.133-2.177-.946-2.177-1.457c0-.193.339-.364 1.015-.51q.728-.072 1.524-.218.364-.072 14.726-.511 1.379-.072 1.742.583a3 3 0 0 1 .217 1.384l-.652 58.658c0 .339-.049.461-.146.363q.146.074 4.5 2.551 3.697 2.038 3.698 2.475Z"/><path d="M177.486 58.378a33.663 33.663 0 0 1-3.845 17.945q-5.006 9.774-12.767 10.065-8.2.293-13.349-7.585a29 29 0 0 1-4.715-15.465 35.8 35.8 0 0 1 4.063-18.236q5.223-9.991 14.146-10.285 7.47-.219 12.114 8.1a36.578 36.578 0 0 1 4.353 15.461Zm-8.778 1.021q-.147-5.689-.217-6.783a39.936 39.936 0 0 0-.871-7.149q-1.887-7.95-6.892-7.878-3.481.074-4.933 1.9-2.249 2.773-3.409 9.847a61.946 61.946 0 0 0-.8 10.5q.07 4.157.145 8.316a36.511 36.511 0 0 0 1.161 8.535q2.029 6.783 7.762 6.637 6.965-.145 7.979-14.589.221-3.646.075-9.336Z"/><path d="M232.545 34.89q-1.017.657-5.15 2.918a2.633 2.633 0 0 0-.871 1.386q-4.063 14.953-12.7 46.757-.364 1.314-1.16 1.313-.654 0-1.162-1.605-3.119-11.086-8.85-29.614-.073-.147.218-.475a.77.77 0 0 1 .507-.328c.146 0 .17.219.074.657q-2.467 10.138-8.053 30.782-.582 1.895-1.524 1.9-.726 0-1.233-1.9-1.523-4.379-5.368-19.7-4.353-17.577-6.238-24.071a3.03 3.03 0 0 0-.654-1.386q-1.959-1.312-3.917-2.553-3.12-2.113-3.119-2.626c0-.242.677-.365 2.03-.365q.582-.07 17.412-.364 3.262-.072 3.264.364 0 .366-2.394 1.9-2.031 1.023-5.659 3.355v.219q1.377 4.815 8.851 28.084c.047.194 0 .317-.145.364a.413.413 0 0 1-.436-.146.718.718 0 0 1-.145-.656l1.887-9.993q1.451-5.909 4.424-18.528.654-2.99 1.306-2.991.363 0 .8 1.1a14.46 14.46 0 0 1 .653 1.531q3.771 10.578 10.084 28.156a.723.723 0 0 1 .145.365.193.193 0 0 1-.218.219q-.725 0-.508-.656 2.466-10.066 6.747-29.762a.285.285 0 0 0-.218-.291q-1.452-.657-7.109-3.429-2.248-1.094-2.248-1.677 0-.51 2.828-.511l17.265.146q3.12 0 3.121.291t-2.537 1.82Z"/><path d="M260.618 56.117v1.24q-.291.585-2.249.584l-20.094.365q-.219 0-.218 1.093a57.794 57.794 0 0 0 .944 11.817q1.958 8.827 7.254 8.827a9.212 9.212 0 0 0 3.7-.949 8.963 8.963 0 0 0 3.263-2.33q2.1-2.478 4.86-9.118 1.088-2.553 1.524-3.428.652-1.314.8-.365.072.8-.145 4.6l-.87 14.516q-.217 3.645-.87 3.647-.291 0-1.742-2.626l-1.958-3.5q-.364-.583-.581-.364a13.225 13.225 0 0 1-8.418 2.907q-6.6 0-11.462-7a23.094 23.094 0 0 1-4.424-13.276v-2.772q-.074-1.97-.073-2.991a33.461 33.461 0 0 1 2.394-12.254 26.558 26.558 0 0 1 4.207-7.514 12.069 12.069 0 0 1 4.358-3.175 12.876 12.876 0 0 1 5.295-1.2 11.312 11.312 0 0 1 7.545 2.772q7.251 6.125 6.96 20.494Zm-8.124-1.969q-.147-13.276-3.41-17.143a3.985 3.985 0 0 0-3.266-1.166 4.838 4.838 0 0 0-4.062 2.188q-3.047 4.231-3.482 15.9a2.636 2.636 0 0 0 .109.876c.072.195.253.291.544.291l12.912-.218q.656.001.656-.728Z"/><path d="M294.133 56.117v1.24q-.289.585-2.249.584l-20.094.365q-.219 0-.218 1.093a57.951 57.951 0 0 0 .943 11.817q1.959 8.827 7.255 8.827a9.208 9.208 0 0 0 3.7-.949 8.954 8.954 0 0 0 3.265-2.334q2.1-2.478 4.86-9.118 1.089-2.553 1.524-3.428.652-1.314.8-.365.07.8-.145 4.6l-.871 14.516q-.217 3.645-.871 3.647-.289 0-1.741-2.626l-1.958-3.5c-.243-.389-.435-.51-.58-.364a13.227 13.227 0 0 1-8.415 2.917q-6.6 0-11.463-7a23.1 23.1 0 0 1-4.425-13.276v-2.772q-.072-1.97-.072-2.991a33.461 33.461 0 0 1 2.394-12.254 26.559 26.559 0 0 1 4.207-7.514 12.069 12.069 0 0 1 4.353-3.173 12.877 12.877 0 0 1 5.3-1.2 11.31 11.31 0 0 1 7.544 2.772q7.242 6.117 6.957 20.486Zm-8.125-1.969q-.146-13.276-3.409-17.143a3.984 3.984 0 0 0-3.264-1.166 4.839 4.839 0 0 0-4.063 2.188q-3.047 4.231-3.482 15.9a2.636 2.636 0 0 0 .109.876c.072.195.253.291.544.291l12.913-.218q.652.001.652-.728Z"/><path d="M340.125 78a11.362 11.362 0 0 1 2.829 1.678q0 .292-3.192.438-3.846.074-10.664.364-1.522.075-1.959-.51a3.948 3.948 0 0 1-.145-1.386V68.007q.072-6.492 0-10.65-.144-5.835-.506-10.577-.794-8.535-6.135-8.534a7.734 7.734 0 0 0-5.559 2.407 10.213 10.213 0 0 0-2.961 7.44q-.074 8.1.072 29.4a1.775 1.775 0 0 0 .363 1.1q2.176.948 8.2 3.647a17.51 17.51 0 0 1 2.177 1.094q0 .512-2.612.657-15.09 1.02-19.079 1.094-2.467.072-2.467-.146t1.524-1.532q1.524-1.312 4.933-4.012a1.209 1.209 0 0 0 .073-.583q-.074-6.2-1.161-24.509-.217-5.689-1.088-15.83c0-.146-.339-.412-1.016-.8q-2.1-.875-5.731-2.407-2.32-1.02-2.321-1.386t2.757-.656q4.424-.438 13.711-1.532 1.667-.219 1.885.364v1.241l.145 6.127q0 .293-.435.292-.435-.072-.435-.438 0-.51 2.467-2.407a15.424 15.424 0 0 1 9.43-3.064 11.976 11.976 0 0 1 8.778 3.283q2.756 2.7 3.047 11.525.217 7.076-.726 24.947-.072 1.167.581 1.531 1.23.718 5.22 2.907Z"/><path d="M377.806 61.381q-.494 6.062-.705 13.083-.282 11.459-.353 13.083-.143 2.883-.917 2.883-.635 0-1.482-1.922a50.131 50.131 0 0 1-2.681-6.209c-.141-.344-.307-.517-.494-.517s-.635.419-1.341 1.256a11.208 11.208 0 0 1-2.47 2.144 7.175 7.175 0 0 1-4.094 1.109q-9.243-.3-15.312-10.791-4.446-7.687-5.152-25.131-.354-9.387 4.8-22.618a21.332 21.332 0 0 1 6.034-8.758 12.687 12.687 0 0 1 8.291-3.216q2.541 0 5.081 2.662.636.664 3.106 4.064c.186.2.328.173.423-.073q1.762-2.29 3.386-7.835.283-.888.6-1.774t.811-.887h.211a.605.605 0 0 0 .283.073c.329 0 .541.322.635.961a3.946 3.946 0 0 1 0 1.479q-.777 9.462-1.763 27.57-.072 3.4-.706 3.4-.706 0-1.623-3.252-.708-2.885-2.964-11.161a70.505 70.505 0 0 0-2.611-7.762q-1.554-3.547-3.459-4.138a8.017 8.017 0 0 0-1.34-.148 5.294 5.294 0 0 0-5.151 2.513 19.959 19.959 0 0 0-1.906 5.1 72.446 72.446 0 0 0-2.611 22.027q.352 11.013.988 16.778 1.2 10.644 3.811 13.748a26.128 26.128 0 0 0 2.54 2.808 4.813 4.813 0 0 0 3.035 1.109q3.6 0 6.633-4.656a40.018 40.018 0 0 0 4.093-9.462q1.128-3.84 2.188-7.76a17.663 17.663 0 0 1 .7-2q.917-2.439 1.341-1.33a9.592 9.592 0 0 1 .145 3.55Z"/><path d="M415.278 58.647a35.3 35.3 0 0 1-3.74 18.183q-4.867 9.9-12.42 10.2-7.975.294-12.985-7.687a30.259 30.259 0 0 1-4.587-15.67 37.537 37.537 0 0 1 3.953-18.478q5.08-10.126 13.76-10.422 7.269-.222 11.786 8.205a38.233 38.233 0 0 1 4.233 15.669Zm-8.538 1.035q-.144-5.766-.212-6.874a42.065 42.065 0 0 0-.847-7.243q-1.834-8.057-6.7-7.983-3.389.073-4.8 1.922-2.188 2.81-3.316 9.978a65.315 65.315 0 0 0-.776 10.643q.069 4.213.141 8.426a38.465 38.465 0 0 0 1.129 8.648q1.974 6.874 7.551 6.726 6.773-.147 7.762-14.782.208-3.696.068-9.461Z"/><path d="M447.526 72.838a12.8 12.8 0 0 1-2.681 7.762 14.426 14.426 0 0 1-4.8 4.028 12.442 12.442 0 0 1-5.926 1.589 13.258 13.258 0 0 1-9.244-3.7q-.426-.444-.917.074-.426 1.553-2.33 6.652-1.269 3.03-1.834 3.03-.425 0-.5-3.769-.282-10.938-.14-19.734.069-3.4.635-3.4t1.834 2.809a36.858 36.858 0 0 0 4.3 9.461q3.6 5.692 8.256 5.691a5.005 5.005 0 0 0 4.093-2.514 9.907 9.907 0 0 0 1.763-5.838q0-3.992-3.033-4.953-3.248-1.7-5.717-2.734a33.6 33.6 0 0 1-9.1-5.322 12.974 12.974 0 0 1-2.823-3.622 12.236 12.236 0 0 1-1.623-5.765 19.4 19.4 0 0 1 3.952-12.491 15.579 15.579 0 0 1 5.151-4.214 12.731 12.731 0 0 1 5.786-1.552 12.212 12.212 0 0 1 7.622 2.366l.7.517q.917-1.7 2.611-4.8 1.482-2.586 2.118-2.587.423 0 .423 1.478v1.109l-.07.739q-.425 7.1-1.059 20.1-.144 2.883-.636 2.883t-1.128-2.144q-.848-3.325-1.624-6.578a27.4 27.4 0 0 0-2.61-6.948 6.69 6.69 0 0 0-6-3.178q-2.472 0-4.941 3.068t-2.469 8.537a16.388 16.388 0 0 0 .917 6.208 11.76 11.76 0 0 0 2.894 3.622q1.549 1.48 8.115 3.918a27.558 27.558 0 0 1 6.492 3.251 8.434 8.434 0 0 1 3.543 6.951Z"/><path d="M476.459 69.734a30.079 30.079 0 0 1-1.342 9.018q-2.539 6.8-9.455 7.168a9.88 9.88 0 0 1-7.974-3.621q-2.261-2.439-2.823-7.908a44.351 44.351 0 0 1-.211-4.731q0-3.327.563-12.491.494-8.647.424-12.861v-1.33q-.142-.813-.846-.74a32.564 32.564 0 0 1-5.153.37q-2.329-.074-2.328-.443 0-.444 1.553-1.923a51 51 0 0 0 9.032-11.382q1.2-1.847 3.175-5.544.988-2.364 1.553-2.365.634 0 .494 3.105-.072 4.582-.283 13.23a1.113 1.113 0 0 0 .212.3q2.047-.148 7.763-.74 1.482-.221 1.694.3v1.183a9.231 9.231 0 0 0-.565 1.4q0 1.48-1.976 1.774-4.869.148-6.987.37c.142 0 .117-.049-.069-.148q-.213 3.179-.283 15.67-.07 8.574 0 9.83 0 4.953.071 9.905.492 5.764 3.74 5.616a4.407 4.407 0 0 0 3.282-1.884q1.443-1.811 2.01-6.1.282-2.661.494-5.247.425-1.626 1.483-1.627c.282.05.728.123 1.339.222a1.277 1.277 0 0 1 .954.554 1.715 1.715 0 0 1 .459 1.07Z"/><path d="M516.257 85.33q3.457 1.4 3.457 1.995 0 .666-4.021.813-1.411.073-5.151.3-3.108.222-4.658.222c-.8 0-1.271-.1-1.412-.3 0-.049-.024-.469-.07-1.256q.069-2-.07-5.1l-.072.073q-.353.888-2.964 2.662a10.615 10.615 0 0 1-5.786 2.069 13.6 13.6 0 0 1-9-3.289q-3.915-3.288-4.268-13.046a148.129 148.129 0 0 1 .355-16.409q.492-6.5.493-11.974a1.241 1.241 0 0 0-.635-1.256q-1.905-.888-5.927-3.031-1.7-.958-1.694-1.478 0-.444 2.388-.444-.351 0 1.757-.11t4.144-.111q2.88 0 5.339.221a1.724 1.724 0 0 1 1.756 1.7q-.143 9.978 0 19.882v11.162q.067 7.168.7 9.165 1.694 5.249 5.715 5.247 5.93 0 7.2-8.426a64.747 64.747 0 0 0 .211-9.017l-.422-12.27q-.142-5.616-.142-8.278a1.3 1.3 0 0 0-.423-1.035q-1.9-.813-5.928-2.587-2.47-1.182-2.469-1.774 0-.442 2.61-.591 11.433-.518 18.136-.591 2.964 0 2.965.222 0 .518-2.294 1.958t-4.27 2.625a.613.613 0 0 0-.141.442q-.425 12.936-1.128 38.657c0 .4.116.641.351.739q1.129.52 5.368 2.219Z"/><path d="M581.391 81.043q2.469.664 2.469 1.7 0 .741-2.61.962-10.516 1.035-12 .961-1.27-.074-1.623-.74a3.887 3.887 0 0 1-.353-1.478q.352-8.426.282-25.426-.071-4.436-.212-8.87a29.276 29.276 0 0 0-1.058-7.761 4.74 4.74 0 0 0-4.941-3.7 6.309 6.309 0 0 0-4.656 1.921 7.763 7.763 0 0 0-1.977 4.953q-.282 2.734-.422 7.464-.142 4.88 1.128 22.175.141 1.627.565 1.847 1.272.594 4.093 2 3.387 1.775 3.386 2.292t-3.739.591l-16.16.222q-3.529.073-3.527-.518 0-.443 2.751-1.847l3.528-1.849q.211-.072.424-1.107.774-17.812.705-26.684 0-4.728-1.905-6.8a4.284 4.284 0 0 0-3.529-1.847 5.949 5.949 0 0 0-3.527 1.293 9.7 9.7 0 0 0-2.682 2.846q-1.341 2.217-1.624 7.835-.141 2-.139 9.682 0 11.53-.142 16.926a.769.769 0 0 0 .423.739c.283.148.893.506 1.836 1.072a25.748 25.748 0 0 0 2.539 1.368q2.893 1.4 2.893 1.921 0 .444-3.1.665-5.364.594-16.584 1.552-2.751.148-2.752-.59 0-.813 2.223-2t5.61-3.03c.282-.149.424-.493.424-1.035q-.144-7.023-.848-20.549-.353-6.429-1.2-18.4a1.84 1.84 0 0 0-.494-1.108 43.989 43.989 0 0 0-5.645-2.81q-2.118-.887-2.117-1.7 0-.738 2.47-.74 3.74 0 12.914-.886 1.41-.148 1.764.369a5.741 5.741 0 0 1 .07 1.183v6.208q0 .444-.211.444c-.33 0-.494-.221-.494-.665a.308.308 0 0 1 .07-.222 12.781 12.781 0 0 1 4.022-3.178 11.066 11.066 0 0 1 5.363-1.63 11.775 11.775 0 0 1 4.728.813 12.8 12.8 0 0 1 4.659 4.14c.045.1.07 0 .07-.3q.351-.664.987-1.7a12.049 12.049 0 0 1 4.8-4.435 11.172 11.172 0 0 1 5.362-1.552 11.763 11.763 0 0 1 7.975 2.809q3.881 3.4 4.375 13.082.069 1.774.07 3.918 0 3.622-1.481 25.722c-.048.394-.048.617 0 .665q1.201.526 6.774 2.817Z"/><path d="M610.818 56.356v1.257q-.282.591-2.188.59l-19.546.37q-.211 0-.212 1.109a61.02 61.02 0 0 0 .917 11.973q1.905 8.946 7.057 8.945a10.2 10.2 0 0 0 6.775-3.327q2.046-2.511 4.727-9.239 1.057-2.586 1.483-3.474.635-1.331.775-.369.07.813-.141 4.656l-.847 14.709q-.211 3.7-.846 3.7-.284 0-1.694-2.661l-1.906-3.547c-.235-.394-.422-.518-.564-.37a12.538 12.538 0 0 1-8.186 2.957q-6.422 0-11.149-7.1a24.057 24.057 0 0 1-4.3-13.452v-2.809a95.658 95.658 0 0 1-.07-3.03 35.136 35.136 0 0 1 2.328-12.418 27.248 27.248 0 0 1 4.093-7.613 11.757 11.757 0 0 1 4.234-3.215 12.108 12.108 0 0 1 5.152-1.22 10.749 10.749 0 0 1 7.339 2.809q7.049 6.207 6.769 20.769Zm-7.9-2q-.142-13.452-3.317-17.37a3.794 3.794 0 0 0-3.176-1.182 4.661 4.661 0 0 0-3.952 2.217q-2.963 4.289-3.386 16.113a2.77 2.77 0 0 0 .106.887c.069.2.247.3.528.3l12.562-.222q.635 0 .63-.735Z"/><path d="M644.405 72.838a12.8 12.8 0 0 1-2.681 7.762 14.432 14.432 0 0 1-4.8 4.028 12.447 12.447 0 0 1-5.928 1.589 13.265 13.265 0 0 1-9.244-3.7q-.423-.444-.916.074-.424 1.553-2.33 6.652-1.268 3.03-1.834 3.03-.424 0-.494-3.769-.282-10.938-.141-19.734.071-3.4.635-3.4c.375 0 .989.937 1.834 2.809a36.857 36.857 0 0 0 4.3 9.461q3.6 5.692 8.257 5.691a5.008 5.008 0 0 0 4.093-2.514 9.907 9.907 0 0 0 1.763-5.838q0-3.992-3.034-4.953-3.246-1.7-5.716-2.734a33.59 33.59 0 0 1-9.1-5.322 13.01 13.01 0 0 1-2.823-3.622 12.234 12.234 0 0 1-1.622-5.765 19.389 19.389 0 0 1 3.952-12.491 15.575 15.575 0 0 1 5.15-4.214 12.731 12.731 0 0 1 5.786-1.552 12.209 12.209 0 0 1 7.621 2.366l.706.517q.918-1.7 2.612-4.8 1.482-2.586 2.117-2.587.423 0 .424 1.478v1.109l-.072.739q-.423 7.1-1.057 20.1-.144 2.883-.636 2.883t-1.129-2.144q-.848-3.325-1.623-6.578a27.427 27.427 0 0 0-2.611-6.948 6.689 6.689 0 0 0-6-3.178q-2.472 0-4.94 3.068t-2.469 8.537a16.367 16.367 0 0 0 .917 6.208 11.779 11.779 0 0 0 2.892 3.622q1.553 1.48 8.116 3.918a27.569 27.569 0 0 1 6.493 3.251 8.435 8.435 0 0 1 3.532 6.951Z"/><path d="M654.977 84.959a3.557 3.557 0 0 1-1.006 2.451 3.593 3.593 0 0 1-2.874 1.3 3.15 3.15 0 0 1-2.42-1.153 3.633 3.633 0 0 1-1.03-2.451 3.509 3.509 0 0 1 1.171-2.642 3.606 3.606 0 0 1 5.246.047 3.536 3.536 0 0 1 .913 2.448Z"/><path d="M679.697 75.25q-1.1 5.432-3.665 7.907a7.952 7.952 0 0 1-5.629 2.474 9.75 9.75 0 0 1-8.719-5q-2.829-4.516-2.827-11.632a22.92 22.92 0 0 1 2.875-11.2q3.257-5.96 8.287-5.959a7.163 7.163 0 0 1 5.8 3.171c.1.1.207.065.336-.1q.669-1.056 1.484-2.644 1.343-2.594 1.725-2.6c.128 0 .192.257.192.769q0 .386-.143 2.451l-.959 12.4q-.24 3.269-.622 3.267-.481 0-1.438-2.787l-2.587-7.739q-1.437-4.276-3.688-4.277a3.726 3.726 0 0 0-2.684 1.73q-2.828 3.558-2.826 13.987 0 6.971 1.725 10.478 1.629 3.316 4.839 3.317 2.156 0 3.927-2.4a10.744 10.744 0 0 0 1.965-5.335q.19-1.586.958-1.73a1.429 1.429 0 0 1 1.245.1q.619.344.429 1.352Z"/><path d="M704.986 68.905a22.154 22.154 0 0 1-2.539 11.825q-3.306 6.441-8.432 6.632-5.414.192-8.815-5a19.065 19.065 0 0 1-3.114-10.19 23.552 23.552 0 0 1 2.683-12.015q3.45-6.585 9.342-6.778 4.933-.144 8 5.335a24.056 24.056 0 0 1 2.875 10.191Zm-5.8.673q-.1-3.749-.144-4.47a26.056 26.056 0 0 0-.575-4.71q-1.246-5.238-4.551-5.191a4.05 4.05 0 0 0-3.257 1.25q-1.486 1.825-2.252 6.488a40.778 40.778 0 0 0-.527 6.922q.047 2.739.1 5.479a23.962 23.962 0 0 0 .767 5.623q1.34 4.471 5.125 4.374 4.6-.1 5.27-9.612.143-2.403.047-6.153Z"/><path d="M747.106 83.464q1.676.432 1.677 1.105 0 .481-1.773.626-7.139.672-8.144.624c-.575-.031-.942-.193-1.1-.481a2.47 2.47 0 0 1-.24-.961q.24-5.478.192-16.534-.048-2.885-.144-5.767a18.291 18.291 0 0 0-.718-5.048 3.2 3.2 0 0 0-3.353-2.4 4.383 4.383 0 0 0-3.162 1.25 4.934 4.934 0 0 0-1.342 3.221q-.192 1.779-.287 4.855-.1 3.171.766 14.42.1 1.056.383 1.2.863.386 2.779 1.3 2.3 1.154 2.3 1.49t-2.54.385l-10.97.144q-2.4.048-2.4-.336 0-.289 1.869-1.2l2.4-1.2c.094-.031.191-.272.287-.721q.525-11.582.478-17.35 0-3.076-1.293-4.423a2.948 2.948 0 0 0-2.395-1.2 4.151 4.151 0 0 0-2.4.84 6.447 6.447 0 0 0-1.82 1.851 11.327 11.327 0 0 0-1.1 5.1q-.1 1.3-.1 6.3 0 7.5-.1 11.007a.5.5 0 0 0 .287.481q.288.144 1.245.7a17.662 17.662 0 0 0 1.726.888q1.962.915 1.964 1.25 0 .289-2.109.433-3.641.386-11.258 1.01-1.869.094-1.868-.385 0-.528 1.509-1.3t3.809-1.971q.287-.144.287-.673-.1-4.566-.574-13.362-.242-4.182-.815-11.968a1.163 1.163 0 0 0-.336-.721 30.353 30.353 0 0 0-3.833-1.826q-1.435-.577-1.436-1.106 0-.482 1.676-.481 2.539 0 8.767-.576.958-.1 1.2.239a3.476 3.476 0 0 1 .048.77V57c0 .193-.048.288-.143.288-.225 0-.336-.144-.336-.432a.191.191 0 0 1 .048-.144 8.628 8.628 0 0 1 2.73-2.068 7.769 7.769 0 0 1 3.642-1.056 8.309 8.309 0 0 1 3.21.529 8.578 8.578 0 0 1 3.161 2.691c.032.065.047 0 .047-.192q.242-.434.671-1.106a8.054 8.054 0 0 1 3.258-2.884 7.845 7.845 0 0 1 3.641-1.009 8.209 8.209 0 0 1 5.414 1.826q2.634 2.211 2.97 8.508.048 1.154.047 2.547 0 2.356-1 16.727-.051.386 0 .432.813.323 4.601 1.807Z"/><path d="m101.838 32.175-1.163-.322-1.668.949.119-2.1-.792-.933-.674 1.034.252 2.118-1.87-1.085-1.23.153.725 1.337 1.954.407-1.365 1.558-.1 1.186 1.331-.525.926-1.592 1.1 1.813 1.246.271-.083-1.271-1.264-1.354 1.853-.526Z"/><path d="m73.026 23.391-.99-.275-1.42.808.1-1.79-.674-.793-.575.88.216 1.8-1.593-.923-1.048.13.617 1.139 1.664.347-1.162 1.327-.087 1.009 1.133-.447.789-1.356.933 1.543 1.062.231-.072-1.081-1.077-1.155 1.579-.447Z"/><path d="m92.057 11.142-2.069-.573-2.969 1.689.21-3.74-1.411-1.654-1.2 1.839.45 3.77-3.329-1.93-2.189.271 1.289 2.382 3.478.724-2.429 2.774-.18 2.11 2.369-.935 1.649-2.834 1.949 3.227 2.219.482-.15-2.261-2.245-2.419 3.3-.935Z"/><path d="m35.294 3.286-1.588-.44-2.279 1.3.161-2.87L30.507.004l-.921 1.411.346 2.893-2.555-1.481-1.68.208.989 1.828 2.67.556-1.864 2.129-.138 1.62 1.818-.718 1.266-2.175 1.5 2.476 1.7.37-.115-1.735-1.726-1.852 2.531-.717ZM6.018 66.551l1.557-2.41-.311-1.645-1.5.766-1.129 2.684-1.486-2.561-1.561-.658-.044 2.081 2.043 1.815-2.669.917-.919 1.338 1.932.284 2.173-1.256.076 2.9 1.3 1.172.757-1.564-.585-2.469 2.552.641 1.593-.843-1.164-1.179Zm-.38-35.093-1.162 1.327-.086 1.01 1.133-.447.79-1.356.932 1.543 1.062.231-.072-1.082-1.076-1.154 1.578-.447.6-.953-.99-.273-1.421.808.1-1.79-.674-.793-.575.88.216 1.8-1.593-.924-1.047.129.617 1.14Z"/></svg>